<?xml version="1.0" encoding="utf-8"?>
<!-- Generator: Adobe Illustrator 12.0.0, SVG Export Plug-In  -->
<!DOCTYPE svg PUBLIC "-//W3C//DTD SVG 1.1//EN" "http://www.w3.org/Graphics/SVG/1.1/DTD/svg11.dtd" [
	<!ENTITY ns_flows "http://ns.adobe.com/Flows/1.0/">
	<!ENTITY ns_svg "http://www.w3.org/2000/svg">
	<!ENTITY ns_xlink "http://www.w3.org/1999/xlink">
]>
<svg  version="1.1" xmlns="&ns_svg;" xmlns:xlink="&ns_xlink;" xmlns:a="http://ns.adobe.com/AdobeSVGViewerExtensions/3.0/"
	 width="567" height="195" viewBox="-0.629 -0.793 567 195" enable-background="new -0.629 -0.793 567 195" xml:space="preserve">
<defs>
</defs>
<ellipse fill="none" stroke="#C5E6FF" stroke-width="9" cx="111.663" cy="97.053" rx="107.163" ry="92.371"/>
<path fill="none" stroke="#C5E6FF" stroke-width="8" d="M161.511,86.715c26.072,42.503,29.657,83.017-4.464,92.315
	c-1.94,0.527-49.621,1.318-78.504-48.663c-22.5-38.927-23.83-80.253-2.974-92.31C96.429,26.002,138.001,48.39,161.511,86.715z"/>
<path fill="none" stroke="#C5E6FF" stroke-width="8" d="M202.404,78.307c14.916,41.63-12.83,88.424-61.771,104.516
	c-45.33,14.905-93.426-4.604-108.341-46.231C17.377,94.962,41.703,48.173,86.624,32.079
	C131.546,15.984,187.489,36.679,202.404,78.307z"/>
<ellipse transform="matrix(0.9873 -0.1591 0.1591 0.9873 -6.1482 12.7676)" fill="none" stroke="#C5E6FF" stroke-width="8" cx="76.661" cy="44.78" rx="36.557" ry="28.616"/>
<path fill="none" stroke="#C5E6FF" stroke-width="8" d="M152.94,43.854c5.987,26.741-19.025,55.1-55.866,63.343
	c-36.835,8.244-71.549-6.752-77.534-33.492c-5.984-26.739,19.029-55.098,55.866-63.34C112.247,2.12,146.959,17.116,152.94,43.854z"
	/>
<path fill="none" stroke="#C5E6FF" stroke-width="8" d="M196.889,58.4c8.961,40.027-25.986,81.914-78.055,93.566
	c-52.063,11.65-101.529-11.351-110.489-51.376C-0.612,60.566,34.336,18.676,86.4,7.027C138.471-4.624,187.936,18.38,196.889,58.4z"
	/>
<line fill="none" stroke="#C5E6FF" stroke-width="8" x1="57.864" y1="17.176" x2="167.075" y2="176.131"/>
<path fill="none" stroke="#C5E6FF" stroke-width="8" d="M72.511,38.493c13.367-16.462,57.382-33.317,57.382-33.317"/>
<path fill="none" stroke="#C5E6FF" stroke-width="8" d="M7.34,73.036C26.201,44.08,70.479,36.462,70.479,36.462"/>
<path fill="none" stroke="#C5E6FF" stroke-width="8" d="M91.876,5.928c-13.942,6.078-19.315,25.093-19.315,25.093"/>
<path fill="none" stroke="#C5E6FF" stroke-width="8" d="M30.251,36.462c19.061-8.953,38.25-3.805,38.25-3.805"/>
<rect x="245.005" y="71.377" fill="#1B5D93" width="11.575" height="55.176"/>
<rect x="297.095" y="71.377" fill="#1B5D93" width="11.575" height="55.176"/>
<rect x="396.042" y="98.745" fill="#6EBFDB" width="6.575" height="27.126"/>
<rect x="451" y="98.745" fill="#6EBFDB" width="6.576" height="27.126"/>
<rect x="355.88" y="98.686" fill="#6EBFDB" width="6.576" height="13.563"/>
<rect x="382.598" y="111.837" fill="#6EBFDB" width="6.576" height="13.563"/>
<rect x="355.88" y="121.059" fill="#6EBFDB" width="33.293" height="5.167"/>
<rect x="355.88" y="109.55" fill="#6EBFDB" width="33.293" height="5.166"/>
<rect x="355.88" y="98.512" fill="#6EBFDB" width="33.293" height="5.166"/>
<rect x="491.867" y="98.686" fill="#6EBFDB" width="6.576" height="13.563"/>
<rect x="518.584" y="111.837" fill="#6EBFDB" width="6.575" height="13.563"/>
<rect x="491.867" y="121.059" fill="#6EBFDB" width="33.292" height="5.167"/>
<rect x="491.867" y="109.55" fill="#6EBFDB" width="33.292" height="5.166"/>
<rect x="491.867" y="98.512" fill="#6EBFDB" width="33.292" height="5.166"/>
<rect x="532.967" y="98.686" fill="#6EBFDB" width="6.576" height="13.563"/>
<rect x="559.684" y="111.837" fill="#6EBFDB" width="6.576" height="13.563"/>
<rect x="532.967" y="121.059" fill="#6EBFDB" width="33.293" height="5.167"/>
<rect x="532.967" y="109.55" fill="#6EBFDB" width="33.293" height="5.166"/>
<rect x="532.967" y="98.512" fill="#6EBFDB" width="33.293" height="5.166"/>
<rect x="315.602" y="98.275" fill="#6EBFDB" width="6.575" height="27.127"/>
<rect x="342.962" y="98.275" fill="#6EBFDB" width="6.577" height="27.127"/>
<rect x="318.828" y="120.098" fill="#6EBFDB" width="26.423" height="5.305"/>
<rect x="437.377" y="98.275" fill="#6EBFDB" width="6.577" height="27.127"/>
<rect x="410.017" y="98.275" fill="#6EBFDB" width="6.576" height="27.127"/>
<rect x="414.302" y="98.275" fill="#6EBFDB" width="26.422" height="5.304"/>
<rect x="451" y="120.822" fill="#6EBFDB" width="32.939" height="5.303"/>
<rect x="451" y="109.53" fill="#6EBFDB" width="20.726" height="5.303"/>
<rect x="451" y="98.256" fill="#6EBFDB" width="32.939" height="5.304"/>
<rect x="245.005" y="70.991" fill="#1B5D93" width="63.279" height="11.575"/>
<rect x="245.005" y="93.37" fill="#1B5D93" width="63.279" height="11.575"/>
<rect x="245.005" y="114.978" fill="#1B5D93" width="63.279" height="11.575"/>
<rect x="298.027" y="157.12" fill="#1B5D93" width="11.576" height="32.411"/>
<rect x="245.167" y="134.741" fill="#1B5D93" width="11.576" height="32.411"/>
<rect x="450.603" y="162.136" fill="#6EBFDB" width="6.575" height="27.127"/>
<rect x="478.082" y="162.136" fill="#6EBFDB" width="6.575" height="27.127"/>
<rect x="356.892" y="161.901" fill="#6EBFDB" width="6.576" height="26.423"/>
<rect x="356.892" y="183.979" fill="#6EBFDB" width="33.293" height="5.166"/>
<rect x="316.612" y="161.783" fill="#6EBFDB" width="6.576" height="27.715"/>
<rect x="343.973" y="161.783" fill="#6EBFDB" width="6.576" height="27.715"/>
<rect x="318.9" y="161.783" fill="#6EBFDB" width="26.422" height="5.42"/>
<rect x="319.84" y="184.078" fill="#6EBFDB" width="26.422" height="5.42"/>
<rect x="491.115" y="161.783" fill="#6EBFDB" width="6.576" height="27.715"/>
<rect x="518.477" y="161.783" fill="#6EBFDB" width="6.575" height="27.715"/>
<rect x="493.403" y="161.783" fill="#6EBFDB" width="26.422" height="5.42"/>
<rect x="494.342" y="184.078" fill="#6EBFDB" width="26.421" height="5.42"/>
<rect x="396.231" y="161.9" fill="#6EBFDB" width="6.576" height="27.127"/>
<rect x="423.592" y="161.9" fill="#6EBFDB" width="6.576" height="27.127"/>
<rect x="399.458" y="183.723" fill="#6EBFDB" width="26.422" height="5.305"/>
<rect x="558.639" y="161.783" fill="#6EBFDB" width="6.575" height="27.948"/>
<rect x="531.278" y="161.783" fill="#6EBFDB" width="6.576" height="27.948"/>
<rect x="535.563" y="161.783" fill="#6EBFDB" width="26.422" height="5.465"/>
<rect x="437.625" y="161.901" fill="#6EBFDB" width="32.939" height="5.304"/>
<rect x="245.938" y="134.356" fill="#1B5D93" width="63.279" height="11.574"/>
<rect x="245.167" y="156.734" fill="#1B5D93" width="64.436" height="11.576"/>
<rect x="245.167" y="179.114" fill="#1B5D93" width="64.436" height="11.575"/>
<rect x="244.324" y="8.449" fill="#1B5D93" width="11.575" height="53.247"/>
<rect x="296.027" y="8.449" fill="#1B5D93" width="11.575" height="53.247"/>
<rect x="354.987" y="32.75" fill="#6EBFDB" width="32.354" height="5.166"/>
<rect x="433.726" y="32.865" fill="#6EBFDB" width="26.5" height="5.166"/>
<rect x="314.298" y="32.75" fill="#6EBFDB" width="6.576" height="26.422"/>
<rect x="316.587" y="32.75" fill="#6EBFDB" width="26.422" height="5.166"/>
<rect x="354.987" y="32.75" fill="#6EBFDB" width="6.576" height="26.422"/>
<rect x="380.763" y="32.75" fill="#6EBFDB" width="6.576" height="16.558"/>
<rect x="433.726" y="33.335" fill="#6EBFDB" width="6.576" height="27.127"/>
<rect x="460.809" y="39.089" fill="#6EBFDB" width="6.575" height="15.501"/>
<rect x="433.902" y="55.296" fill="#6EBFDB" width="25.895" height="5.166"/>
<rect x="459.428" y="50.686" transform="matrix(-0.6119 -0.7909 0.7909 -0.6119 700.8516 454.8408)" fill="#6EBFDB" width="5.165" height="9.595"/>
<rect x="459.501" y="33.025" transform="matrix(-0.666 0.746 -0.746 -0.666 798.0258 -281.7025)" fill="#6EBFDB" width="5.167" height="9.594"/>
<rect x="394.035" y="32.75" fill="#6EBFDB" width="6.576" height="26.422"/>
<rect x="394.035" y="54.828" fill="#6EBFDB" width="33.293" height="5.165"/>
<rect x="354.987" y="45.432" fill="#6EBFDB" width="32.354" height="5.166"/>
<rect x="372.797" y="45.582" transform="matrix(0.7072 -0.707 0.707 0.7072 71.9723 281.0831)" fill="#6EBFDB" width="5.166" height="16.114"/>
<rect x="341.66" y="32.75" fill="#6EBFDB" width="6.576" height="26.422"/>
<rect x="317.526" y="54.006" fill="#6EBFDB" width="26.422" height="5.166"/>
<rect x="244.324" y="50.507" fill="#1B5D93" width="63.279" height="11.575"/>
<rect x="270.562" y="20.172" fill="#1B5D93" width="11.575" height="41.524"/>
</svg>
